<svg height="15" viewBox="0 0 11 15" width="11" xmlns="http://www.w3.org/2000/svg"><path d="m7.875 18.25.4921875-.6328125s1.625-2.0859375 2.265625-2.921875c1.1953125-1.5703125 2.3671875-3.2890625 2.3671875-5.5546875 0-2.8359375-2.296875-5.140625-5.125-5.140625s-5.125 2.3046875-5.125 5.140625c0 2.265625 1.171875 3.984375 2.3671875 5.5546875.640625.8359375 2.265625 2.921875 2.265625 2.921875zm0-1.9765625c-.5390625-.6953125-1.3671875-1.765625-1.78125-2.3125-1.3515625-1.765625-2.1328125-3.1171875-2.1328125-4.8359375 0-2.1640625 1.7578125-3.9296875 3.9140625-3.9296875s3.9140625 1.765625 3.9140625 3.9296875c0 1.71875-.78125 3.0703125-2.1328125 4.8359375-.4140625.546875-1.2421875 1.6171875-1.78125 2.3125zm0-6.0234375c.8984375 0 1.625-.7265625 1.625-1.625s-.7265625-1.625-1.625-1.625-1.625.7265625-1.625 1.625.7265625 1.625 1.625 1.625z" fill="#fff" transform="translate(-2 -4)"/></svg>