<svg height="14" viewBox="0 0 15 14" width="15" xmlns="http://www.w3.org/2000/svg"><path d="m3.90625 17c1.6328125-.015625 4.53125-1.2890625 6.9140625-3.671875 2.390625-2.390625 3.6640625-5.2890625 3.6797962-6.9140625.0155163-1.6328125-1.6563587-2.8671875-3.2188587-3.3203125-.1640625-.046875-.34375-.09375-.515625-.09375-.640625 0-.8671875.5234375-.9765625.78125-.2265625.5078125-.5390625 1.1875-.8125 1.78125-.1953125.421875-.375.8125-.5 1.09375-.234375.53125-.2734375.9453125.25 1.4609375l.6953125.703125c-.2421875.40625-.6953125 1.078125-1.359375 1.7421875s-1.34375 1.1171875-1.75 1.359375l-.6953125-.6953125c-.1328125-.1328125-.4140625-.4140625-.8359375-.4140625-.234375 0-.4375.0859375-.6328125.171875-.2734375.125-.671875.3046875-1.09375.4921875-.59375.2734375-1.2734375.5859375-1.78125.8125-.71875.3125-.90625.734375-.6875 1.4921875.453125 1.5546875 1.6796875 3.21875 3.296875 3.21875zm-.015625-1.25h-.0078125c-.890625 0-1.765625-1.171875-2.1015625-2.3125v-.015625c.515625-.2265625 1.1953125-.53125 1.796875-.8125.421875-.1875.8046875-.3671875 1.078125-.4921875.0234375-.0078125.046875-.015625.0625-.0234375.0078125 0 .0078125.0078125.015625.015625l1.34375 1.34375.3984375-.1953125c.046875-.0234375 1.265625-.609375 2.46875-1.8125 1.1953125-1.203125 1.7890625-2.421875 1.8125-2.46875l.1875-.3984375-1.3359375-1.3359375c-.0078125-.0078125-.015625-.015625-.015625-.0234375.0078125-.015625.015625-.03125.0234375-.0546875.125-.28125.296875-.6640625.4921875-1.078125.2734375-.6015625.5859375-1.28125.8125-1.796875h.0078125c1.1484375.3359375 2.3359375 1.21875 2.3281633 2.109375-.0156633 1.1484375-1.0547258 3.7890625-3.3125383 6.046875-2.265625 2.2578125-4.8984375 3.296875-6.0546875 3.3046875z" transform="translate(0 -3)"/></svg>