<svg height="65" viewBox="0 0 305 65" width="305" xmlns="http://www.w3.org/2000/svg"><g fill="none" transform="translate(-1)"><path d="m8.92 17.15c1.52-4.0866667 4.8533333-6.1333333 10-6.14 6 0 9 2.6666667 9 8v8.4c-.0384641 2.7231375.1690451 5.444186.62 8.13h-2.98c-.2795237-1.3897523-.469912-2.7959536-.57-4.21-2.0138182 3.0796012-5.481852 4.8931254-9.16 4.79-2.2681409.1554998-4.4990406-.6376285-6.16-2.19-1.22974877-1.2799531-1.88354078-3.0065419-1.81-4.78 0-4.3333333 2.8533333-6.95 8.56-7.85 2.8037542-.4115433 5.6280178-.668598 8.46-.77v-1.29c0-2.2733333-.53-3.8533333-1.59-4.74-1.2927689-.883231-2.8494177-1.2962195-4.41-1.17-3.63 0-6 1.6-7 4.81zm15.93 5.58c-2.5996314.0513089-5.1910949.3087833-7.75.77-4.06.78-6.09 2.62-6.09 5.52-.0766012 1.3802725.5104572 2.7141585 1.58 3.59 1.0904956.7957286 2.421933 1.191275 3.77 1.12 3.4 0 6.2166667-1.7266667 8.45-5.18z" fill="#24272a"/><path d="m44.66 0v35.49h-3.15v-35.49z" fill="#24272a"/><path d="m62.23 1.95v4.48h-4.66v-4.48zm-.74 9.63v23.91h-3.13v-23.91z" fill="#24272a"/><path d="m114.26 11.58v4.44c2.82-3.3333333 5.906667-5 9.26-5 1.996773-.1330143 3.954998.5949502 5.38 2 1.180921 1.2769487 1.803614 2.9722559 1.73 4.71v17.76h-3.2v-16.51c0-3.54-1.56-5.31-4.7-5.31-2.94 0-5.73 1.6666667-8.37 5v16.82h-3.14v-23.91z" fill="#24272a"/><path d="m99.87 7.5-.27 3c-1.2485842-.0474051-2.4946127.1461198-3.67.57-.853819.3792342-1.6354.9036717-2.31 1.55 1.9665872 1.4455474 3.0899688 3.7709473 3 6.21.0963203 2.6539653-1.1472838 5.1787447-3.31 6.72-2.0493866 1.4241427-4.5061267 2.1436165-7 2.05-1.5980013.0162936-3.1850608-.265172-4.68-.83-1.88 1-2.82 2-2.82 3.17-.0628336.8442514.4318607 1.6308965 1.22 1.94 1.5448703.4797118 3.1442473.7619548 4.76.84l5.53.51c3.81.38 6.45 1.19 7.92 2.41 1.1198997.9646779 1.7293133 2.3940298 1.65 3.87 0 2.33-1.25 4.18-3.74 5.53-2.9525131 1.3664-6.1898352 2.0042622-9.44 1.86-4.2 0-7.41-.6666667-9.63-2-1.7021316-.8707769-2.7861998-2.6083614-2.82-4.52.0292585-1.3901988.6649403-2.6980957 1.74-3.58 1.1573491-1.004498 2.5236948-1.7389088 4-2.15-2.86-.5866667-4.29-1.8833333-4.29-3.89 0-1.75 1.31-3.46 3.91-5.14-2.2780238-1.4609321-3.6161156-4.0154711-3.52-6.72-.0682394-2.6714819 1.2136474-5.1976637 3.41-6.72 3.6572596-2.44384204 8.332083-2.77830094 12.3-.88.9378732-1.30171855 2.1995232-2.33585787 3.66-3 1.3997537-.5535369 2.8949855-.82539723 4.4-.8zm-16.9 27.79c-3.6733333.9466667-5.5066667 2.5133333-5.5000181 4.7 0 1.6066667.9800181 2.8166667 2.9400181 3.63 2.0539502.736683 4.2292592 1.0760448 6.41 1 3.34 0 5.9-.5 7.68-1.52 1.2628217-.5740339 2.099918-1.804604 2.17-3.19.0360966-1.1241408-.5900282-2.1650733-1.6-2.66-1.7812525-.7787812-3.6885494-1.2293505-5.63-1.33zm3.39-22.88c-1.9015784-.0757731-3.7537852.6161018-5.14 1.92-1.2348502 1.1941389-1.9099824 2.8529314-1.86 4.57-.0808604 1.9173676.7727144 3.7549761 2.29 4.93 1.3544567 1.0146867 3.0193861 1.5272446 4.71 1.45 1.8973153.0838416 3.7489506-.5970126 5.14-1.89 1.2443672-1.2978971 1.8965165-3.052663 1.8018142-4.8482181-.0947022-1.795555-.9278218-3.471984-2.3018142-4.6317819-1.3274629-1.0200177-2.9666497-1.5499273-4.64-1.5z" fill="#24272a"/><path d="m1 44.53h68.04v1.58h-68.04z" fill="#ffc600"/><path d="m104.82 44.53h33.47v1.58h-33.47z" fill="#ffc600"/><g fill="#24272a"><path d="m5.18 54.68c1.2378045-.0656824 2.42809751.4845474 3.18 1.47.71910413 1.0503574 1.07068866 2.3090301 1 3.58.09732812 1.426201-.36141382 2.8346821-1.28 3.93-.76250063.7732381-1.81479873 1.1905287-2.9 1.15-1.24324392.0587048-2.43460774-.5032593-3.18-1.5-.719682-1.042568-1.071539-2.2951789-1-3.56-.08235157-1.4350259.40658748-2.8443208 1.36-3.92.73716176-.7617968 1.76033111-1.1790467 2.82-1.15zm0 1.31c-.760837-.01867-1.46633333.3960999-1.82 1.07-.42283286.8346718-.61937074 1.7656407-.57 2.7-.07015795 1.0349264.19265444 2.065151.75 2.94.33285303.4368059.82634067.7226245 1.37085843.7939751s1.09498486-.077674 1.52914157-.4139751c.22206212-.1699412.40602057-.3845594.54-.63.42953031-.8289824.62976871-1.7576743.58-2.69.08848441-1.0540517-.17149116-2.1080067-.74-3-.38608006-.5150377-.99644867-.8127784-1.64-.8z"/><path d="m14.19 54.85h3.53c2.3 0 3.45.89 3.45 2.67.0160024.5930862-.1828795 1.1719745-.56 1.63-.3680434.4109179-.8474316.7061932-1.38.85l2.3 4.6h-1.84l-2-4.39h-1.83v4.38h-1.67zm1.67 1.3v2.89h1.67c1.28 0 1.92-.49 1.92-1.47 0-1-.62-1.45-1.85-1.42z"/><path d="m32.81 54.85v1.38h-2.92v8.43h-1.79v-8.43h-2.83v-1.38z"/><path d="m44.85 54.85v9.8h-1.69v-4.42h-4.09v4.42h-1.71v-9.8h1.69v4h4.11v-4z"/><path d="m53.86 54.68c1.237127-.0621726 2.4258629.4873374 3.18 1.47.7197949 1.0500352 1.0714465 2.3089477 1 3.58.0998286 1.4316409-.3711526 2.8445844-1.31 3.93-.7601171.770626-1.8082322 1.187696-2.89 1.15-1.2467116.0620881-2.4425911-.5002377-3.19-1.5-.719682-1.042568-1.071539-2.2951789-1-3.56-.0986751-1.436258.375992-2.8530673 1.32-3.94.7579247-.7718423 1.8095472-1.1830303 2.89-1.13zm0 1.31c-.760837-.01867-1.4663333.3960999-1.82 1.07-.4273619.833071-.6241604 1.7652743-.57 2.7-.0738356 1.033897.185506 2.0642539.74 2.94.4266771.5482618 1.0989093.8473061 1.7918185.7970953s1.3150052-.443047 1.6581815-1.0470953c.42025-.8322923.6199491-1.7584826.58-2.69.0762619-1.0530483-.1827782-2.103211-.74-3-.3860801-.5150377-.9964487-.8127784-1.64-.8z"/><path d="m62.89 54.85h3.29c1.3283098-.1058777 2.6374559.3681864 3.59 1.3.7634361.9825649 1.1468957 2.2075052 1.08 3.45.1247488 1.4681352-.423275 2.9135941-1.49 3.93-.9553254.7646982-2.1579108 1.1525142-3.38 1.09h-3.09zm1.69 1.3v7.18h1.33c.9046014.0657051 1.7858878-.3061457 2.37-1 .5363175-.7571615.8006518-1.6735204.75-2.6 0-2.36-1-3.54-3-3.54z"/><path d="m79.36 54.68c1.2301994-.0555072 2.4099685.4933095 3.16 1.47.7197949 1.0500352 1.0714465 2.3089477 1 3.58.0998286 1.4316409-.3711526 2.8445844-1.31 3.93-.7625006.7732381-1.8147987 1.1905287-2.9 1.15-1.2432439.0587048-2.4346077-.5032593-3.18-1.5-.719682-1.042568-1.071539-2.2951789-1-3.56-.1042642-1.4369681.3711031-2.8558676 1.32-3.94.7604198-.7805609 1.8220813-1.1928213 2.91-1.13zm0 1.31c-.7572688-.0148367-1.4579478.3993769-1.81 1.07-.4338168.8313211-.637515 1.763499-.59 2.7-.0701579 1.0349264.1926544 2.065151.75 2.94.332853.4368059.8263407.7226245 1.3708584.7939751.5445178.0713506 1.0949849-.077674 1.5291416-.4139751.2217584-.1730817.4084334-.3869095.55-.63.4215609-.831536.6180761-1.7589498.57-2.69.0870358-1.0525947-.1690684-2.1050774-.73-3-.3860801-.5150377-.9964487-.8127784-1.64-.8z"/><path d="m95.93 54.85v9.8h-2.09l-2.38-5c-.5-1.09-1-2.17-1.4-3.25h-.17c.0466667 1.0933333.0766667 2.2733333.09 3.54v4.71h-1.56v-9.8h2.56l2 4.34c.4962805 1.0980269.9303016 2.2231432 1.3 3.37h.17c-.08-1.3333333-.12-2.5333333-.12-3.6v-4.11z"/><path d="m107.99 54.85v1.38h-2.92v8.43h-1.71v-8.43h-2.9v-1.38z"/><path d="m114.29 54.85v9.8h-1.72v-9.8z"/><path d="m127.09 57.65-1.66.41c-.24-1.38-.93-2.07-2-2.07-.777281-.0323882-1.502815.3888898-1.86 1.08-.451531.8217355-.662908 1.753875-.61 2.69-.07694 1.0397304.197764 2.0751529.78 2.94.393389.5313939 1.018921.8404361 1.68.83 1.16 0 1.88-.7 2.16-2.11l1.61.5c-.324664 1.8202484-1.98876 3.0889586-3.83 2.92-1.258559.0538764-2.46423-.5097651-3.23-1.51-.714169-1.0451487-1.065489-2.2958463-1-3.56-.100403-1.4382196.378482-2.8568707 1.33-3.94.763886-.771144 1.815225-1.1880545 2.9-1.15.948931-.049159 1.880251.2696387 2.6.89.584669.5582917.979826 1.2856609 1.13 2.08z"/><path d="m138.13 57.15-1.66.45c-.25-1.07-.83-1.61-1.75-1.61-.453539-.0282813-.901742.1104481-1.26.39-.24658.2289609-.381588.5537108-.37.89-.008497.3799243.148406.7448149.43 1 .415941.2869283.885189.4875487 1.38.59l.51.15c.889698.1713234 1.709965.5988351 2.36 1.23.367156.4767305.551608 1.0691036.52 1.67.041658.8489957-.331147 1.6654383-1 2.19-1.534443.9388781-3.465557.9388781-5 0-.580794-.4567549-.986835-1.0993586-1.15-1.82l1.63-.52c.09739.5364874.380627 1.0215317.8 1.37.357098.2680049.793605.4088137 1.24.4 1.25 0 1.87-.47 1.87-1.4.016288-.3772764-.133554-.7427449-.41-1-.451834-.3121059-.962025-.529787-1.5-.64l-.5-.15c-.871212-.1801236-1.670707-.6111559-2.3-1.24-.406538-.49135-.62302-1.1124039-.61-1.75-.021878-.7918985.353354-1.5423634 1-2 .66362-.4894258 1.47656-.7333075 2.3-.69 1.613817-.1443 3.089955.9149462 3.47 2.49z"/><path d="m157.58 0h1.64v64.85h-1.64z"/><path d="m180.26 15.32v-13.94h1.84v12.29h6.86v1.65z"/><path d="m198.69 14.07c-.538739.4839608-1.158102.8697935-1.83 1.14-.601356.2235154-1.238471.3353493-1.88.33-.924774.0610683-1.838667-.228093-2.56-.81-.585278-.5265226-.910531-1.2830089-.89-2.07-.007441-.4752535.109785-.9441605.34-1.36.201902-.4038368.505111-.7483918.88-1 .373669-.2579155.790117-.44751801 1.23-.56.500279-.12057769 1.008087-.20743959 1.52-.26 1.034237-.09135595 2.056304-.28906726 3.05-.59 0-.23 0-.38 0-.45.054382-.53575629-.119927-1.06957586-.48-1.47-.559047-.42164961-1.251388-.62757669-1.95-.58-.622585-.04867636-1.244842.09814833-1.78.42-.446309.38978648-.749101.91791152-.86 1.5l-1.66-.16c.116981-.62565049.373318-1.21693666.75-1.73.402656-.46487311.924848-.81069573 1.51-1 .737317-.24835139 1.512161-.36677736 2.29-.35.71541-.02314812 1.429393.07836595 2.11.3.451288.14944034.857286.41093063 1.18.76.27065.3402026.452747.74219048.53 1.17.075425.52309406.105537 1.05172453.09 1.58v2.28c-.024441 1.0013069.012294 2.0031719.11 3 .073687.4279593.219061.8404164.43 1.22h-1.78c-.198821-.4104696-.317606-.8550651-.35-1.31zm-.14-3.82c-.902819.3201393-1.838651.5381647-2.79.65-.508922.0506302-1.009491.1648539-1.49.34-.278917.1122024-.516397.3077735-.68.56-.159749.2396683-.2434.5219912-.24.81-.002634.4379556.187547.8548907.52 1.14.435716.3286018.97562.4884417 1.52.45.611022.0132803 1.214713-.1350552 1.75-.43.493203-.2655563.891604-.6779353 1.14-1.18.206925-.5452908.29885-1.1274816.27-1.71z"/><path d="m204.08 15.32v-10.1h1.54v1.53c.255272-.54440845.627439-1.02583632 1.09-1.41.322086-.22558408.706799-.34449544 1.1-.34.62368.0137132 1.230608.20446195 1.75.55l-.59 1.6c-.376015-.23304556-.807718-.36082956-1.25-.37-.361218.00287734-.711888.12210531-1 .34-.306121.23696508-.527171.5667856-.63.94-.198765.64782623-.296578 1.32239899-.29 2v5.29z"/><path d="m211.73 15.32v-10.1h1.54v1.53c.255272-.54440845.627439-1.02583632 1.09-1.41.319002-.22419762.700106-.34307398 1.09-.34005815.6271.01187886 1.237753.20270819 1.76.55005815l-.59 1.6c-.376015-.23304556-.807718-.36082956-1.25-.37-.36146.00143617-.712574.12081487-1 .34-.306121.23696508-.527171.5667856-.63.94-.20366.64671772-.301587 1.32207149-.29 2v5.29z"/><path d="m219.36 19.2-.19-1.6c.325264.0938616.661512.1442988 1 .15.314596.0156003.627929-.049821.91-.19.22757-.1277104.419966-.3097987.56-.53.209292-.4124154.386483-.8403496.53-1.28 0-.09.08-.23.15-.41l-3.83-10.12h1.84l2.1 5.85c.27.74.52 1.52.73 2.34.192916-.7794946.429965-1.5473987.71-2.3l2.15-5.89h1.71l-3.84 10.27c-.284006.7839379-.618026 1.5488429-1 2.29-.232037.4856833-.574499.9103356-1 1.24-.420092.2688218-.911477.4047366-1.41.39-.38245-.0068739-.761037-.077859-1.12-.21z"/><path d="m180.69 41.73v-17.91h3.57l4.24 12.68c.39 1.18.67 2.07.85 2.65.21-.65.52-1.61 1-2.87l4.28-12.46h3.19v17.91h-2.28v-15l-5.21 15h-2.14l-5.18-15.25v15.25z"/><path d="m210.8 40.15c-.699436.6178444-1.497052 1.1146649-2.36 1.47-.774944.2840232-1.594671.4262899-2.42.42-1.182961.0882653-2.356251-.268358-3.29-1-1.206987-1.1401522-1.498148-2.9486356-.71-4.41.268911-.5081455.656568-.9438298 1.13-1.27.487847-.3173895 1.020399-.5600711 1.58-.72.659939-.1474803 1.327664-.2576549 2-.33 1.329369-.1175462 2.643021-.3722338 3.92-.76 0-.3 0-.49 0-.57.077764-.6901593-.148536-1.3800108-.62-1.89-.712844-.5487418-1.602814-.8157328-2.5-.75-.802263-.0631122-1.603907.1294226-2.29.55-.577349.4937995-.966011 1.1721918-1.1 1.92l-2.15-.29c.156114-.8107529.498446-1.5741526 1-2.23.505621-.6159164 1.179769-1.0711402 1.94-1.31.945627-.3238057 1.94066-.479491 2.94-.46.915934-.0298266 1.829946.1021974 2.7.39.590846.1892634 1.119509.5347946 1.53 1 .349332.43218.586367.9440399.69 1.49.08873.6627814.125509 1.3314854.11 2v2.93c-.037639 1.2950013.009127 2.5910791.14 3.88.095451.5469293.281328 1.0741422.55 1.56h-2.3c-.258795-.5063935-.424751-1.0550648-.49-1.62zm-.19-4.91c-1.162018.4095129-2.366155.6879066-3.59.83-.65474.0726469-1.298964.2202817-1.92.44-.351853.1487263-.653755.3951058-.87.71-.190448.2992243-.294287.6453553-.3 1-.008776.5607477.233248 1.0961346.66 1.46.570015.4387029 1.283141.6490751 2 .59.78979.0181846 1.570075-.1751603 2.26-.56.635383-.3392303 1.14662-.8714774 1.46-1.52.26802-.701113.387213-1.4503272.35-2.2z"/><path d="m214.45 46.76.41-1.87c.324936.0997734.660668.1602052 1 .18.387993.0288147.764248-.1404999 1-.45.294899-.7040002.408367-1.4707631.33-2.23v-13.64h2.2v13.69c.099669 1.1457117-.114672 2.2969303-.62 3.33-.595378.8542051-1.603 1.3236653-2.64 1.23-.568391-.0021085-1.133755-.0828748-1.68-.24zm2.78-20.39v-2.55h2.2v2.55z"/><path d="m222.64 41.73v-1.78l8.26-9.49c-.93 0-1.76.08-2.48.08h-5.29v-1.79h10.61v1.46l-7 8.23-1.38 1.51c1-.08 1.91-.11 2.77-.11h6v1.89z"/><path d="m237.36 41.73v-13h2v1.85c.895335-1.4001092 2.46983-2.2159492 4.13-2.14.737861-.0086476 1.469639.1343044 2.15.42.586703.2256291 1.099119.6099409 1.48 1.11.335493.4875829.566968 1.0390386.68 1.62.099526.7087468.139665 1.4245696.12 2.14v8h-2.2v-7.89c.03004-.6759943-.054486-1.3521999-.25-2-.174984-.4484889-.495427-.8252734-.91-1.07-.468962-.2660224-1.000948-.4007461-1.54-.39-.890033-.0190992-1.754418.2987943-2.42.89-.68.59-1 1.72-1 3.38v7.09z"/><path d="m261.12 37.55 2.27.28c-.294267 1.2281584-1.000051 2.3185938-2 3.09-2.571523 1.6817491-5.954359 1.4145749-8.23-.65-1.179271-1.3581479-1.778866-3.1246187-1.67-4.92-.112656-1.8478858.492811-3.6678698 1.69-5.08 1.124223-1.2100032 2.719456-1.870729 4.37-1.81 1.609311-.0547088 3.163301.5909631 4.26 1.77 1.166902 1.3950916 1.753925 3.1847971 1.64 5v.58h-9.67c-.007279 1.2020346.41873 2.366459 1.2 3.28.704047.7473033 1.693679 1.1584371 2.72 1.13.737.0202942 1.460422-.2009467 2.06-.63.643891-.5316346 1.116911-1.2411643 1.36-2.04zm-7.22-3.55h7.24c-.017245-.8858185-.307064-1.7448007-.83-2.46-.656649-.827331-1.664114-1.2977285-2.72-1.27-.950149-.024612-1.86987.3360627-2.55 1-.714927.7308678-1.122856 1.70775-1.14 2.73z"/><path d="m267.13 41.73v-13h2v2c.326657-.702537.804757-1.3240674 1.4-1.82.4144-.2864742.906219-.44 1.41-.44.804685.0219885 1.58731.2678573 2.26.71l-.76 2c-.482684-.304198-1.03954-.4702172-1.61-.48-.47001-.000781-.927081.1539198-1.3.44-.389831.306533-.676077.7254301-.82 1.2-.247515.8339153-.368858 1.7001725-.36 2.57v6.79z"/><path d="m275.61 37.86 2.17-.35c.063143.7706241.421386 1.4871115 1 2 .675541.4961013 1.503369.7402045 2.34.69.79806.0638957 1.593498-.1517564 2.25-.61.453728-.3450563.723051-.8800134.73-1.45.013845-.4770161-.230857-.9243618-.64-1.17-.715-.3447975-1.471121-.5968377-2.25-.75-1.141777-.2608839-2.259175-.6188526-3.34-1.07-.583391-.2582605-1.074944-.6870625-1.41-1.23-.327164-.5208542-.497286-1.1249614-.49-1.74-.000412-.5613118.136939-1.1141473.4-1.61.265035-.4845256.633819-.9045298 1.08-1.23.428322-.2888246.901332-.5050574 1.4-.64.617927-.1757216 1.257582-.2632534 1.9-.26.912554-.016093 1.820496.1329722 2.68.44.673242.2226407 1.267312.6360581 1.71 1.19.402133.6001951.66206 1.2842117.76 2l-2.16.29c-.067788-.6090424-.368848-1.1681537-.84-1.56-.583845-.4081255-1.289112-.6056002-2-.56-.754623-.0640302-1.510271.1108885-2.16.5-.391945.2630231-.633744.6982609-.65 1.17-.001867.2801861.093562.5523361.27.77.223903.2663961.513439.4697611.84.59.22.08.87.27 1.94.56 1.105702.2677832 2.194328.6017174 3.26 1 .58469.2394171 1.088076.6421261 1.45 1.16.364147.5575568.545873 1.2145655.52 1.88-.000771.7385908-.223772 1.4598598-.64 2.07-.450052.6762493-1.095329 1.1994475-1.85 1.5-.865742.3679013-1.799512.548521-2.74.53-1.364838.0923339-2.721017-.2775331-3.85-1.05-.918145-.7779628-1.516457-1.8677454-1.68-3.06z"/><path d="m290.01 41.73v-17.91h2.2v10.21l5.21-5.28h2.84l-5 4.82 5.46 8.16h-2.71l-4.29-6.64-1.55 1.5v5.14z"/><path d="m303.53 26.35v-2.53h2.19v2.53zm0 15.38v-13h2.19v13z"/><path d="m180.12 63.69v-11.94h4.11c.713972-.0172595 1.427804.0397131 2.13.17.643874.1421383 1.244098.4371056 1.75.86.634895.5336548 1.120682 1.2227134 1.41 2 .330832.9094857.490192 1.8724223.47 2.84.016733.8149445-.091179 1.6276601-.32 2.41-.172537.6205747-.446207 1.208458-.81 1.74-.579694.8749144-1.475676 1.49135-2.5 1.72-.629581.1439209-1.274273.2110763-1.92.2zm1.58-1.4h2.55c.624109.0175837 1.24742-.0565397 1.85-.22.399829-.1211037.766102-.3333366 1.07-.62.407563-.4274536.708996-.9446843.88-1.51.224376-.7488618.329-1.5284774.31-2.31.056667-.9971849-.153917-1.9914183-.61-2.88-.330907-.6059667-.8607-1.0792488-1.5-1.34-.647475-.197044-1.323944-.2816026-2-.25h-2.51z"/><path d="m192.17 63.69v-11.94h4.11c.713972-.0172595 1.427804.0397131 2.13.17.643101.1443381 1.242829.4390615 1.75.86.634895.5336548 1.120682 1.2227134 1.41 2 .32603.9107384.485242 1.8727835.47 2.84.011192.8146259-.096612 1.6265216-.32 2.41-.172537.6205747-.446207 1.208458-.81 1.74-.295307.4227224-.664574.7886011-1.09 1.08-.434619.2882872-.919796.4918579-1.43.6-.626048.1447866-1.267539.2119584-1.91.2zm1.58-1.4h2.55c.624077.0168661 1.247283-.057245 1.85-.22.398831-.123393.764613-.3353409 1.07-.62.407563-.4274536.708996-.9446843.88-1.51.224376-.7488618.329-1.5284774.31-2.31.054075-.9981292-.16-1.99254-.62-2.88-.328395-.6042468-.854424-1.0773203-1.49-1.34-.6478-.1955141-1.324006-.2800398-2-.25h-2.51z"/><path d="m203.68 59.86 1.49-.13c.04164.5224997.209812 1.0270163.49 1.47.305198.4160816.720928.738272 1.2.93.58022.2386661 1.202659.3577118 1.83.35.54553.0109101 1.08826-.0806757 1.6-.27.398972-.142734.746872-.4001796 1-.74.218536-.2877714.337838-.6386614.34-1 .010071-.3616302-.106671-.7153919-.33-1-.284765-.3281438-.655264-.5705267-1.07-.7-.698953-.2345674-1.409972-.4315164-2.13-.59-.791513-.1614651-1.562831-.4096283-2.3-.74-.516513-.2515181-.957905-.6342879-1.28-1.11-.279791-.4462015-.425567-.9633621-.42-1.49-.000386-.6027816.180819-1.1917006.52-1.69.365389-.5417962.889294-.9574273 1.5-1.19.711179-.2870114 1.473267-.4265008 2.24-.41.801062-.0164951 1.597136.129792 2.34.43.635807.2519747 1.179901.6914349 1.56 1.26.366097.559741.567107 1.2112919.58 1.88l-1.51.11c-.036384-.6581823-.3354-1.2742264-.83-1.71-.604461-.430022-1.34024-.6351912-2.08-.58-.736101-.0592433-1.471083.1271395-2.09.53-.406031.2915973-.647727.7601152-.65 1.26-.014713.4046892.154374.7943257.46 1.06.726808.4432147 1.536859.7325187 2.38.85.90358.1810151 1.790113.4386115 2.65.77.612699.2576859 1.14467.6756626 1.54 1.21.330511.5045258.501271 1.0969605.49 1.7 0 .6399121-.187755 1.2657614-.54 1.8-.387417.5777062-.93225 1.0323119-1.57 1.31-.723909.3203634-1.508443.4806814-2.3.47-.928875.0254209-1.853516-.1343515-2.72-.47-.698857-.2970985-1.293935-.7947368-1.71-1.43-.426343-.633776-.662308-1.3763725-.68-2.14z"/><path d="m219.93 63.69v-11.94h2.43l2.82 8.46c.26.79.45 1.37.57 1.77.14-.44.35-1.08.64-1.92l2.86-8.31h2.11v11.94h-1.52v-10l-3.47 10h-1.43l-3.45-10.16v10.16z"/><path d="m233.36 59.86 1.5-.13c.04164.5224997.209812 1.0270163.49 1.47.305198.4160816.720928.738272 1.2.93.579981.2394651 1.202585.3585424 1.83.35.54553.0109101 1.08826-.0806757 1.6-.27.397585-.1453226.744802-.4022632 1-.74.214806-.2897407.333681-.639374.34-1 .010071-.3616302-.106671-.7153919-.33-1-.284765-.3281438-.655264-.5705267-1.07-.7-.698953-.2345674-1.409972-.4315164-2.13-.59-.794619-.1619284-1.569202-.410063-2.31-.74-.51183-.254501-.949281-.63684-1.27-1.11-.279791-.4462015-.425567-.9633621-.42-1.49-.003338-.6017327.174357-1.1905634.51-1.69.370068-.5374448.892467-.9518814 1.5-1.19.696142-.2786436 1.440205-.4179432 2.19-.41.804371-.0172963 1.603872.1289953 2.35.43.635807.2519747 1.179901.6914349 1.56 1.26.366097.559741.567107 1.2112919.58 1.88l-1.51.11c-.036384-.6581823-.3354-1.2742264-.83-1.71-.604461-.430022-1.34024-.6351912-2.08-.58-.736101-.0592433-1.471083.1271395-2.09.53-.40855.2905377-.653786.7587147-.66 1.26-.010779.4060478.161844.7953668.47 1.06.726808.4432147 1.536859.7325187 2.38.85.900804.1790541 1.784183.4367063 2.64.77.623133.2491449 1.16369.668423 1.56 1.21.338133.501478.51279 1.0953094.5 1.7 0 .6399121-.187755 1.2657614-.54 1.8-.387417.5777062-.93225 1.0323119-1.57 1.31-.723909.3203634-1.508443.4806814-2.3.47-.928875.0254209-1.853516-.1343515-2.72-.47-.702536-.2954216-1.301276-.7932112-1.72-1.43-.415741-.6370173-.641222-1.3793726-.65-2.14z"/><path d="m245 63.69v-11.94h4.11c.713972-.0172595 1.427804.0397131 2.13.17.643874.1421383 1.244098.4371056 1.75.86.634895.5336548 1.120682 1.2227134 1.41 2 .330832.9094857.490192 1.8724223.47 2.84.016733.8149445-.091179 1.6276601-.32 2.41-.172537.6205747-.446207 1.208458-.81 1.74-.589482.861952-1.488416 1.4636288-2.51 1.68-.629581.1439209-1.274273.2110763-1.92.2zm1.58-1.4h2.55c.624109.0175837 1.24742-.0565397 1.85-.22.399829-.1211037.766102-.3333366 1.07-.62.407563-.4274536.708996-.9446843.88-1.51.224376-.7488618.329-1.5284774.31-2.31.056667-.9971849-.153917-1.9914183-.61-2.88-.330907-.6059667-.8607-1.0792488-1.5-1.34-.647475-.197044-1.323944-.2816026-2-.25h-2.51z"/></g></g></svg>