<?xml version="1.0" encoding="UTF-8"?>
<svg width="305px" height="65px" viewBox="0 0 305 65" version="1.1" xmlns="http://www.w3.org/2000/svg" xmlns:xlink="http://www.w3.org/1999/xlink">
    <!-- Generator: Sketch 62 (91390) - https://sketch.com -->
    <title>logo</title>
    <desc>Created with Sketch.</desc>
    <g id="Page-1" stroke="none" stroke-width="1" fill="none" fill-rule="evenodd">
        <g id="logo" transform="translate(-1.000000, 0.000000)" fill-rule="nonzero">
            <path d="M8.92,17.15 C10.44,13.0633333 13.7733333,11.0166667 18.92,11.01 C24.92,11.01 27.92,13.6766667 27.92,19.01 L27.92,27.41 C27.8815359,30.1331375 28.0890451,32.854186 28.54,35.54 L25.56,35.54 C25.2804763,34.1502477 25.090088,32.7440464 24.99,31.33 C22.9761818,34.4096012 19.508148,36.2231254 15.83,36.12 C13.5618591,36.2754998 11.3309594,35.4823715 9.67,33.93 C8.44025123,32.6500469 7.78645922,30.9234581 7.86,29.15 C7.86,24.8166667 10.7133333,22.2 16.42,21.3 C19.2237542,20.8884567 22.0480178,20.631402 24.88,20.53 L24.88,19.24 C24.88,16.9666667 24.35,15.3866667 23.29,14.5 C21.9972311,13.616769 20.4405823,13.2037805 18.88,13.33 C15.25,13.33 12.88,14.93 11.88,18.14 L8.92,17.15 Z M24.85,22.73 C22.2503686,22.7813089 19.6589051,23.0387833 17.1,23.5 C13.04,24.28 11.01,26.12 11.01,29.02 C10.9333988,30.4002725 11.5204572,31.7341585 12.59,32.61 C13.6804956,33.4057286 15.011933,33.801275 16.36,33.73 C19.76,33.73 22.5766667,32.0033333 24.81,28.55 L24.85,22.73 Z" id="Shape" fill="#24272A"></path>
            <polygon id="Path" fill="#24272A" points="44.66 0 44.66 35.49 41.51 35.49 41.51 0"></polygon>
            <path d="M62.23,1.95 L62.23,6.43 L57.57,6.43 L57.57,1.95 L62.23,1.95 Z M61.49,11.58 L61.49,35.49 L58.36,35.49 L58.36,11.58 L61.49,11.58 Z" id="Shape" fill="#24272A"></path>
            <path d="M114.26,11.58 L114.26,16.02 C117.08,12.6866667 120.166667,11.02 123.52,11.02 C125.516773,10.8869857 127.474998,11.6149502 128.9,13.02 C130.080921,14.2969487 130.703614,15.9922559 130.63,17.73 L130.63,35.49 L127.43,35.49 L127.43,18.98 C127.43,15.44 125.87,13.67 122.73,13.67 C119.79,13.67 117,15.3366667 114.36,18.67 L114.36,35.49 L111.22,35.49 L111.22,11.58 L114.26,11.58 Z" id="Path" fill="#24272A"></path>
            <path d="M99.87,7.5 L99.6,10.5 C98.3514158,10.4525949 97.1053873,10.6461198 95.93,11.07 C95.076181,11.4492342 94.2946,11.9736717 93.62,12.62 C95.5865872,14.0655474 96.7099688,16.3909473 96.62,18.83 C96.7163203,21.4839653 95.4727162,24.0087447 93.31,25.55 C91.2606134,26.9741427 88.8038733,27.6936165 86.31,27.6 C84.7119987,27.6162936 83.1249392,27.334828 81.63,26.77 C79.75,27.77 78.81,28.77 78.81,29.94 C78.7471664,30.7842514 79.2418607,31.5708965 80.03,31.88 C81.5748703,32.3597118 83.1742473,32.6419548 84.79,32.72 L90.32,33.23 C94.13,33.61 96.77,34.42 98.24,35.64 C99.3598997,36.6046779 99.9693133,38.0340298 99.89,39.51 C99.89,41.84 98.64,43.69 96.15,45.04 C93.1974869,46.4064 89.9601648,47.0442622 86.71,46.9 C82.51,46.9 79.3,46.2333333 77.08,44.9 C75.3778684,44.0292231 74.2938002,42.2916386 74.26,40.38 C74.2892585,38.9898012 74.9249403,37.6819043 76,36.8 C77.1573491,35.795502 78.5236948,35.0610912 80,34.65 C77.14,34.0633333 75.71,32.7666667 75.71,30.76 C75.71,29.01 77.02,27.3 79.62,25.62 C77.3419762,24.1590679 76.0038844,21.6045289 76.1,18.9 C76.0317606,16.2285181 77.3136474,13.7023363 79.51,12.18 C83.1672596,9.73615796 87.842083,9.40169906 91.81,11.3 C92.7478732,9.99828145 94.0095232,8.96414213 95.47,8.3 C96.8697537,7.7464631 98.3649855,7.47460277 99.87,7.5 Z M82.97,35.29 C79.2966667,36.2366667 77.4633333,37.8033333 77.4699819,39.99 C77.4699819,41.5966667 78.45,42.8066667 80.41,43.62 C82.4639502,44.356683 84.6392592,44.6960448 86.82,44.62 C90.16,44.62 92.72,44.12 94.5,43.1 C95.7628217,42.5259661 96.599918,41.295396 96.67,39.91 C96.7060966,38.7858592 96.0799718,37.7449267 95.07,37.25 C93.2887475,36.4712188 91.3814506,36.0206495 89.44,35.92 L82.97,35.29 Z M86.36,12.41 C84.4584216,12.3342269 82.6062148,13.0261018 81.22,14.33 C79.9851498,15.5241389 79.3100176,17.1829314 79.36,18.9 C79.2791396,20.8173676 80.1327144,22.6549761 81.65,23.83 C83.0044567,24.8446867 84.6693861,25.3572446 86.36,25.28 C88.2573153,25.3638416 90.1089506,24.6829874 91.5,23.39 C92.7443672,22.0921029 93.3965165,20.337337 93.3018142,18.5417819 C93.207112,16.7462269 92.3739924,15.0697979 91,13.91 C89.6725371,12.8899823 88.0333503,12.3600727 86.36,12.41 L86.36,12.41 Z" id="Shape" fill="#24272A"></path>
            <rect id="Rectangle" fill="#FFC600" x="1" y="44.53" width="68.04" height="1.58"></rect>
            <rect id="Rectangle" fill="#FFC600" x="104.82" y="44.53" width="33.47" height="1.58"></rect>
            <path d="M5.18,54.68 C6.4178045,54.6143176 7.60809751,55.1645474 8.36,56.15 C9.07910413,57.2003574 9.43068866,58.4590301 9.36,59.73 C9.45732812,61.156201 8.99858618,62.5646821 8.08,63.66 C7.31749937,64.4332381 6.26520127,64.8505287 5.18,64.81 C3.93675608,64.8687048 2.74539226,64.3067407 2,63.31 C1.280318,62.267432 0.928461,61.0148211 1,59.75 C0.917648425,58.3149741 1.40658748,56.9056792 2.36,55.83 C3.09716176,55.0682032 4.12033111,54.6509533 5.18,54.68 L5.18,54.68 Z M5.18,55.99 C4.419163,55.97133 3.71366667,56.3860999 3.36,57.06 C2.93716714,57.8946718 2.74062926,58.8256407 2.79,59.76 C2.71984205,60.7949264 2.98265444,61.825151 3.54,62.7 C3.87285303,63.1368059 4.36634067,63.4226245 4.91085843,63.4939751 C5.45537619,63.5653257 6.00584329,63.4163011 6.44,63.08 C6.66206212,62.9100588 6.84602057,62.6954406 6.98,62.45 C7.40953031,61.6210176 7.60976871,60.6923257 7.56,59.76 C7.64848441,58.7059483 7.38850884,57.6519933 6.82,56.76 C6.43391994,56.2449623 5.82355133,55.9472216 5.18,55.96 L5.18,55.99 Z" id="Shape" fill="#24272A"></path>
            <path d="M14.19,54.85 L17.72,54.85 C20.02,54.85 21.17,55.74 21.17,57.52 C21.1860024,58.1130862 20.9871205,58.6919745 20.61,59.15 C20.2419566,59.5609179 19.7625684,59.8561932 19.23,60 L21.53,64.6 L19.69,64.6 L17.69,60.21 L15.86,60.21 L15.86,64.59 L14.19,64.59 L14.19,54.85 Z M15.86,56.15 L15.86,59.04 L17.53,59.04 C18.81,59.04 19.45,58.55 19.45,57.57 C19.45,56.57 18.83,56.12 17.6,56.15 L15.86,56.15 Z" id="Shape" fill="#24272A"></path>
            <polygon id="Path" fill="#24272A" points="32.81 54.85 32.81 56.23 29.89 56.23 29.89 64.66 28.1 64.66 28.1 56.23 25.27 56.23 25.27 54.85"></polygon>
            <polygon id="Path" fill="#24272A" points="44.85 54.85 44.85 64.65 43.16 64.65 43.16 60.23 39.07 60.23 39.07 64.65 37.36 64.65 37.36 54.85 39.05 54.85 39.05 58.85 43.16 58.85 43.16 54.85"></polygon>
            <path d="M53.86,54.68 C55.097127,54.6178274 56.2858629,55.1673374 57.04,56.15 C57.7597949,57.2000352 58.1114465,58.4589477 58.04,59.73 C58.1398286,61.1616409 57.6688474,62.5745844 56.73,63.66 C55.9698829,64.430626 54.9217678,64.847696 53.84,64.81 C52.5932884,64.8720881 51.3974089,64.3097623 50.65,63.31 C49.930318,62.267432 49.578461,61.0148211 49.65,59.75 C49.5513249,58.313742 50.025992,56.8969327 50.97,55.81 C51.7279247,55.0381577 52.7795472,54.6269697 53.86,54.68 L53.86,54.68 Z M53.86,55.99 C53.099163,55.97133 52.3936667,56.3860999 52.04,57.06 C51.6126381,57.893071 51.4158396,58.8252743 51.47,59.76 C51.3961644,60.793897 51.655506,61.8242539 52.21,62.7 C52.6366771,63.2482618 53.3089093,63.5473061 54.0018185,63.4970953 C54.6947277,63.4468845 55.3168237,63.0540483 55.66,62.45 C56.08025,61.6177077 56.2799491,60.6915174 56.24,59.76 C56.3162619,58.7069517 56.0572218,57.656789 55.5,56.76 C55.1139199,56.2449623 54.5035513,55.9472216 53.86,55.96 L53.86,55.99 Z" id="Shape" fill="#24272A"></path>
            <path d="M62.89,54.85 L66.18,54.85 C67.5083098,54.7441223 68.8174559,55.2181864 69.77,56.15 C70.5334361,57.1325649 70.9168957,58.3575052 70.85,59.6 C70.9747488,61.0681352 70.426725,62.5135941 69.36,63.53 C68.4046746,64.2946982 67.2020892,64.6825142 65.98,64.62 L62.89,64.62 L62.89,54.85 Z M64.58,56.15 L64.58,63.33 L65.91,63.33 C66.8146014,63.3957051 67.6958878,63.0238543 68.28,62.33 C68.8163175,61.5728385 69.0806518,60.6564796 69.03,59.73 C69.03,57.37 68.03,56.19 66.03,56.19 L64.58,56.15 Z" id="Shape" fill="#24272A"></path>
            <path d="M79.36,54.68 C80.5901994,54.6244928 81.7699685,55.1733095 82.52,56.15 C83.2397949,57.2000352 83.5914465,58.4589477 83.52,59.73 C83.6198286,61.1616409 83.1488474,62.5745844 82.21,63.66 C81.4474994,64.4332381 80.3952013,64.8505287 79.31,64.81 C78.0667561,64.8687048 76.8753923,64.3067407 76.13,63.31 C75.410318,62.267432 75.058461,61.0148211 75.13,59.75 C75.0257358,58.3130319 75.5011031,56.8941324 76.45,55.81 C77.2104198,55.0294391 78.2720813,54.6171787 79.36,54.68 L79.36,54.68 Z M79.36,55.99 C78.6027312,55.9751633 77.9020522,56.3893769 77.55,57.06 C77.1161832,57.8913211 76.912485,58.823499 76.96,59.76 C76.8898421,60.7949264 77.1526544,61.825151 77.71,62.7 C78.042853,63.1368059 78.5363407,63.4226245 79.0808584,63.4939751 C79.6253762,63.5653257 80.1758433,63.4163011 80.61,63.08 C80.8317584,62.9069183 81.0184334,62.6930905 81.16,62.45 C81.5815609,61.618464 81.7780761,60.6910502 81.73,59.76 C81.8170358,58.7074053 81.5609316,57.6549226 81,56.76 C80.6139199,56.2449623 80.0035513,55.9472216 79.36,55.96 L79.36,55.99 Z" id="Shape" fill="#24272A"></path>
            <path d="M95.93,54.85 L95.93,64.65 L93.84,64.65 L91.46,59.65 C90.96,58.56 90.46,57.48 90.06,56.4 L89.89,56.4 C89.9366667,57.4933333 89.9666667,58.6733333 89.98,59.94 L89.98,64.65 L88.42,64.65 L88.42,54.85 L90.98,54.85 L92.98,59.19 C93.4762805,60.2880269 93.9103016,61.4131432 94.28,62.56 L94.45,62.56 C94.37,61.2266667 94.33,60.0266667 94.33,58.96 L94.33,54.85 L95.93,54.85 Z" id="Path" fill="#24272A"></path>
            <polygon id="Path" fill="#24272A" points="107.99 54.85 107.99 56.23 105.07 56.23 105.07 64.66 103.36 64.66 103.36 56.23 100.46 56.23 100.46 54.85"></polygon>
            <polygon id="Path" fill="#24272A" points="114.29 54.85 114.29 64.65 112.57 64.65 112.57 54.85"></polygon>
            <path d="M127.09,57.65 L125.43,58.06 C125.19,56.68 124.5,55.99 123.43,55.99 C122.652719,55.9576118 121.927185,56.3788898 121.57,57.07 C121.118469,57.8917355 120.907092,58.823875 120.96,59.76 C120.88306,60.7997304 121.157764,61.8351529 121.74,62.7 C122.133389,63.2313939 122.758921,63.5404361 123.42,63.53 C124.58,63.53 125.3,62.83 125.58,61.42 L127.19,61.92 C126.865336,63.7402484 125.20124,65.0089586 123.36,64.84 C122.101441,64.8938764 120.89577,64.3302349 120.13,63.33 C119.415831,62.2848513 119.064511,61.0341537 119.13,59.77 C119.029597,58.3317804 119.508482,56.9131293 120.46,55.83 C121.223886,55.058856 122.275225,54.6419455 123.36,54.68 C124.308931,54.630841 125.240251,54.9496387 125.96,55.57 C126.544669,56.1282917 126.939826,56.8556609 127.09,57.65 L127.09,57.65 Z" id="Path" fill="#24272A"></path>
            <path d="M138.13,57.15 L136.47,57.6 C136.22,56.53 135.64,55.99 134.72,55.99 C134.266461,55.9617187 133.818258,56.1004481 133.46,56.38 C133.21342,56.6089609 133.078412,56.9337108 133.09,57.27 C133.081503,57.6499243 133.238406,58.0148149 133.52,58.27 C133.935941,58.5569283 134.405189,58.7575487 134.9,58.86 L135.41,59.01 C136.299698,59.1813234 137.119965,59.6088351 137.77,60.24 C138.137156,60.7167305 138.321608,61.3091036 138.29,61.91 C138.331658,62.7589957 137.958853,63.5754383 137.29,64.1 C135.755557,65.0388781 133.824443,65.0388781 132.29,64.1 C131.709206,63.6432451 131.303165,63.0006414 131.14,62.28 L132.77,61.76 C132.86739,62.2964874 133.150627,62.7815317 133.57,63.13 C133.927098,63.3980049 134.363605,63.5388137 134.81,63.53 C136.06,63.53 136.68,63.06 136.68,62.13 C136.696288,61.7527236 136.546446,61.3872551 136.27,61.13 C135.818166,60.8178941 135.307975,60.600213 134.77,60.49 L134.27,60.34 C133.398788,60.1598764 132.599293,59.7288441 131.97,59.1 C131.563462,58.60865 131.34698,57.9875961 131.36,57.35 C131.338122,56.5581015 131.713354,55.8076366 132.36,55.35 C133.02362,54.8605742 133.83656,54.6166925 134.66,54.66 C136.273817,54.5157 137.749955,55.5749462 138.13,57.15 L138.13,57.15 Z" id="Path" fill="#24272A"></path>
            <rect id="Rectangle" fill="#24272A" x="157.58" y="0" width="1.64" height="64.85"></rect>
            <polygon id="Path" fill="#24272A" points="180.26 15.32 180.26 1.38 182.1 1.38 182.1 13.67 188.96 13.67 188.96 15.32"></polygon>
            <path d="M198.69,14.07 C198.151261,14.5539608 197.531898,14.9397935 196.86,15.21 C196.258644,15.4335154 195.621529,15.5453493 194.98,15.54 C194.055226,15.6010683 193.141333,15.311907 192.42,14.73 C191.834722,14.2034774 191.509469,13.4469911 191.53,12.66 C191.522559,12.1847465 191.639785,11.7158395 191.87,11.3 C192.071902,10.8961632 192.375111,10.5516082 192.75,10.3 C193.123669,10.0420845 193.540117,9.85248199 193.98,9.74 C194.480279,9.61942231 194.988087,9.53256041 195.5,9.48 C196.534237,9.38864405 197.556304,9.19093274 198.55,8.89 C198.55,8.66 198.55,8.51 198.55,8.44 C198.604382,7.90424371 198.430073,7.37042414 198.07,6.97 C197.510953,6.54835039 196.818612,6.34242331 196.12,6.39 C195.497415,6.34132364 194.875158,6.48814833 194.34,6.81 C193.893691,7.19978648 193.590899,7.72791152 193.48,8.31 L191.82,8.15 C191.936981,7.52434951 192.193318,6.93306334 192.57,6.42 C192.972656,5.95512689 193.494848,5.60930427 194.08,5.42 C194.817317,5.17164861 195.592161,5.05322264 196.37,5.07 C197.08541,5.04685188 197.799393,5.14836595 198.48,5.37 C198.931288,5.51944034 199.337286,5.78093063 199.66,6.13 C199.93065,6.4702026 200.112747,6.87219048 200.19,7.3 C200.265425,7.82309406 200.295537,8.35172453 200.28,8.88 L200.28,11.16 C200.255559,12.1613069 200.292294,13.1631719 200.39,14.16 C200.463687,14.5879593 200.609061,15.0004164 200.82,15.38 L199.04,15.38 C198.841179,14.9695304 198.722394,14.5249349 198.69,14.07 Z M198.55,10.25 C197.647181,10.5701393 196.711349,10.7881647 195.76,10.9 C195.251078,10.9506302 194.750509,11.0648539 194.27,11.24 C193.991083,11.3522024 193.753603,11.5477735 193.59,11.8 C193.430251,12.0396683 193.3466,12.3219912 193.35,12.61 C193.347366,13.0479556 193.537547,13.4648907 193.87,13.75 C194.305716,14.0786018 194.84562,14.2384417 195.39,14.2 C196.001022,14.2132803 196.604713,14.0649448 197.14,13.77 C197.633203,13.5044437 198.031604,13.0920647 198.28,12.59 C198.486925,12.0447092 198.57885,11.4625184 198.55,10.88 L198.55,10.25 Z" id="Shape" fill="#24272A"></path>
            <path d="M204.08,15.32 L204.08,5.22 L205.62,5.22 L205.62,6.75 C205.875272,6.20559155 206.247439,5.72416368 206.71,5.34 C207.032086,5.11441592 207.416799,4.99550456 207.81,5 C208.43368,5.0137132 209.040608,5.20446195 209.56,5.55 L208.97,7.15 C208.593985,6.91695444 208.162282,6.78917044 207.72,6.78 C207.358782,6.78287734 207.008112,6.90210531 206.72,7.12 C206.413879,7.35696508 206.192829,7.6867856 206.09,8.06 C205.891235,8.70782623 205.793422,9.38239899 205.8,10.06 L205.8,15.35 L204.08,15.32 Z" id="Path" fill="#24272A"></path>
            <path d="M211.73,15.32 L211.73,5.22 L213.27,5.22 L213.27,6.75 C213.525272,6.20559155 213.897439,5.72416368 214.36,5.34 C214.679002,5.11580238 215.060106,4.99692602 215.45,4.99994185 C216.0771,5.01182071 216.687753,5.20265004 217.21,5.55 L216.62,7.15 C216.243985,6.91695444 215.812282,6.78917044 215.37,6.78 C215.00854,6.78143617 214.657426,6.90081487 214.37,7.12 C214.063879,7.35696508 213.842829,7.6867856 213.74,8.06 C213.53634,8.70671772 213.438413,9.38207149 213.45,10.06 L213.45,15.35 L211.73,15.32 Z" id="Path" fill="#24272A"></path>
            <path d="M219.36,19.2 L219.17,17.6 C219.495264,17.6938616 219.831512,17.7442988 220.17,17.75 C220.484596,17.7656003 220.797929,17.700179 221.08,17.56 C221.30757,17.4322896 221.499966,17.2502013 221.64,17.03 C221.849292,16.6175846 222.026483,16.1896504 222.17,15.75 C222.17,15.66 222.25,15.52 222.32,15.34 L218.49,5.22 L220.33,5.22 L222.43,11.07 C222.7,11.81 222.95,12.59 223.16,13.41 C223.352916,12.6305054 223.589965,11.8626013 223.87,11.11 L226.02,5.22 L227.73,5.22 L223.89,15.49 C223.605994,16.2739379 223.271974,17.0388429 222.89,17.78 C222.657963,18.2656833 222.315501,18.6903356 221.89,19.02 C221.469908,19.2888218 220.978523,19.4247366 220.48,19.41 C220.09755,19.4031261 219.718963,19.332141 219.36,19.2 L219.36,19.2 Z" id="Path" fill="#24272A"></path>
            <path d="M180.69,41.73 L180.69,23.82 L184.26,23.82 L188.5,36.5 C188.89,37.68 189.17,38.57 189.35,39.15 C189.56,38.5 189.87,37.54 190.35,36.28 L194.63,23.82 L197.82,23.82 L197.82,41.73 L195.54,41.73 L195.54,26.73 L190.33,41.73 L188.19,41.73 L183.01,26.48 L183.01,41.73 L180.69,41.73 Z" id="Path" fill="#24272A"></path>
            <path d="M210.8,40.15 C210.100564,40.7678444 209.302948,41.2646649 208.44,41.62 C207.665056,41.9040232 206.845329,42.0462899 206.02,42.04 C204.837039,42.1282653 203.663749,41.771642 202.73,41.04 C201.523013,39.8998478 201.231852,38.0913644 202.02,36.63 C202.288911,36.1218545 202.676568,35.6861702 203.15,35.36 C203.637847,35.0426105 204.170399,34.7999289 204.73,34.64 C205.389939,34.4925197 206.057664,34.3823451 206.73,34.31 C208.059369,34.1924538 209.373021,33.9377662 210.65,33.55 C210.65,33.25 210.65,33.06 210.65,32.98 C210.727764,32.2898407 210.501464,31.5999892 210.03,31.09 C209.317156,30.5412582 208.427186,30.2742672 207.53,30.34 C206.727737,30.2768878 205.926093,30.4694226 205.24,30.89 C204.662651,31.3837995 204.273989,32.0621918 204.14,32.81 L201.99,32.52 C202.146114,31.7092471 202.488446,30.9458474 202.99,30.29 C203.495621,29.6740836 204.169769,29.2188598 204.93,28.98 C205.875627,28.6561943 206.87066,28.500509 207.87,28.52 C208.785934,28.4901734 209.699946,28.6221974 210.57,28.91 C211.160846,29.0992634 211.689509,29.4447946 212.1,29.91 C212.449332,30.34218 212.686367,30.8540399 212.79,31.4 C212.87873,32.0627814 212.915509,32.7314854 212.9,33.4 L212.9,36.33 C212.862361,37.6250013 212.909127,38.9210791 213.04,40.21 C213.135451,40.7569293 213.321328,41.2841422 213.59,41.77 L211.29,41.77 C211.031205,41.2636065 210.865249,40.7149352 210.8,40.15 Z M210.61,35.24 C209.447982,35.6495129 208.243845,35.9279066 207.02,36.07 C206.36526,36.1426469 205.721036,36.2902817 205.1,36.51 C204.748147,36.6587263 204.446245,36.9051058 204.23,37.22 C204.039552,37.5192243 203.935713,37.8653553 203.93,38.22 C203.921224,38.7807477 204.163248,39.3161346 204.59,39.68 C205.160015,40.1187029 205.873141,40.3290751 206.59,40.27 C207.37979,40.2881846 208.160075,40.0948397 208.85,39.71 C209.485383,39.3707697 209.99662,38.8385226 210.31,38.19 C210.57802,37.488887 210.697213,36.7396728 210.66,35.99 L210.61,35.24 Z" id="Shape" fill="#24272A"></path>
            <path d="M214.45,46.76 L214.86,44.89 C215.184936,44.9897734 215.520668,45.0502052 215.86,45.07 C216.247993,45.0988147 216.624248,44.9295001 216.86,44.62 C217.154899,43.9159998 217.268367,43.1492369 217.19,42.39 L217.19,28.75 L219.39,28.75 L219.39,42.44 C219.489669,43.5857117 219.275328,44.7369303 218.77,45.77 C218.174622,46.6242051 217.167,47.0936653 216.13,47 C215.561609,46.9978915 214.996245,46.9171252 214.45,46.76 L214.45,46.76 Z M217.23,26.37 L217.23,23.82 L219.43,23.82 L219.43,26.37 L217.23,26.37 Z" id="Shape" fill="#24272A"></path>
            <path d="M222.64,41.73 L222.64,39.95 L230.9,30.46 C229.97,30.46 229.14,30.54 228.42,30.54 L223.13,30.54 L223.13,28.75 L233.74,28.75 L233.74,30.21 L226.74,38.44 L225.36,39.95 C226.36,39.87 227.27,39.84 228.13,39.84 L234.13,39.84 L234.13,41.73 L222.64,41.73 Z" id="Path" fill="#24272A"></path>
            <path d="M237.36,41.73 L237.36,28.73 L239.36,28.73 L239.36,30.58 C240.255335,29.1798908 241.82983,28.3640508 243.49,28.44 C244.227861,28.4313524 244.959639,28.5743044 245.64,28.86 C246.226703,29.0856291 246.739119,29.4699409 247.12,29.97 C247.455493,30.4575829 247.686968,31.0090386 247.8,31.59 C247.899526,32.2987468 247.939665,33.0145696 247.92,33.73 L247.92,41.73 L245.72,41.73 L245.72,33.84 C245.75004,33.1640057 245.665514,32.4878001 245.47,31.84 C245.295016,31.3915111 244.974573,31.0147266 244.56,30.77 C244.091038,30.5039776 243.559052,30.3692539 243.02,30.38 C242.129967,30.3609008 241.265582,30.6787943 240.6,31.27 C239.92,31.86 239.6,32.99 239.6,34.65 L239.6,41.74 L237.36,41.73 Z" id="Path" fill="#24272A"></path>
            <path d="M261.12,37.55 L263.39,37.83 C263.095733,39.0581584 262.389949,40.1485938 261.39,40.92 C258.818477,42.6017491 255.435641,42.3345749 253.16,40.27 C251.980729,38.9118521 251.381134,37.1453813 251.49,35.35 C251.377344,33.5021142 251.982811,31.6821302 253.18,30.27 C254.304223,29.0599968 255.899456,28.399271 257.55,28.46 C259.159311,28.4052912 260.713301,29.0509631 261.81,30.23 C262.976902,31.6250916 263.563925,33.4147971 263.45,35.23 C263.45,35.36 263.45,35.55 263.45,35.81 L253.78,35.81 C253.772721,37.0120346 254.19873,38.176459 254.98,39.09 C255.684047,39.8373033 256.673679,40.2484371 257.7,40.22 C258.437,40.2402942 259.160422,40.0190533 259.76,39.59 C260.403891,39.0583654 260.876911,38.3488357 261.12,37.55 L261.12,37.55 Z M253.9,34 L261.14,34 C261.122755,33.1141815 260.832936,32.2551993 260.31,31.54 C259.653351,30.712669 258.645886,30.2422715 257.59,30.27 C256.639851,30.245388 255.72013,30.6060627 255.04,31.27 C254.325073,32.0008678 253.917144,32.97775 253.9,34 L253.9,34 Z" id="Shape" fill="#24272A"></path>
            <path d="M267.13,41.73 L267.13,28.73 L269.13,28.73 L269.13,30.73 C269.456657,30.027463 269.934757,29.4059326 270.53,28.91 C270.9444,28.6235258 271.436219,28.47 271.94,28.47 C272.744685,28.4919885 273.52731,28.7378573 274.2,29.18 L273.44,31.18 C272.957316,30.875802 272.40046,30.7097828 271.83,30.7 C271.35999,30.699219 270.902919,30.8539198 270.53,31.14 C270.140169,31.446533 269.853923,31.8654301 269.71,32.34 C269.462485,33.1739153 269.341142,34.0401725 269.35,34.91 L269.35,41.7 L267.13,41.73 Z" id="Path" fill="#24272A"></path>
            <path d="M275.61,37.86 L277.78,37.51 C277.843143,38.2806241 278.201386,38.9971115 278.78,39.51 C279.455541,40.0061013 280.283369,40.2502045 281.12,40.2 C281.91806,40.2638957 282.713498,40.0482436 283.37,39.59 C283.823728,39.2449437 284.093051,38.7099866 284.1,38.14 C284.113845,37.6629839 283.869143,37.2156382 283.46,36.97 C282.745,36.6252025 281.988879,36.3731623 281.21,36.22 C280.068223,35.9591161 278.950825,35.6011474 277.87,35.15 C277.286609,34.8917395 276.795056,34.4629375 276.46,33.92 C276.132836,33.3991458 275.962714,32.7950386 275.97,32.18 C275.969588,31.6186882 276.106939,31.0658527 276.37,30.57 C276.635035,30.0854744 277.003819,29.6654702 277.45,29.34 C277.878322,29.0511754 278.351332,28.8349426 278.85,28.7 C279.467927,28.5242784 280.107582,28.4367466 280.75,28.44 C281.662554,28.423907 282.570496,28.5729722 283.43,28.88 C284.103242,29.1026407 284.697312,29.5160581 285.14,30.07 C285.542133,30.6701951 285.80206,31.3542117 285.9,32.07 L283.74,32.36 C283.672212,31.7509576 283.371152,31.1918463 282.9,30.8 C282.316155,30.3918745 281.610888,30.1943998 280.9,30.24 C280.145377,30.1759698 279.389729,30.3508885 278.74,30.74 C278.348055,31.0030231 278.106256,31.4382609 278.09,31.91 C278.088133,32.1901861 278.183562,32.4623361 278.36,32.68 C278.583903,32.9463961 278.873439,33.1497611 279.2,33.27 C279.42,33.35 280.07,33.54 281.14,33.83 C282.245702,34.0977832 283.334328,34.4317174 284.4,34.83 C284.98469,35.0694171 285.488076,35.4721261 285.85,35.99 C286.214147,36.5475568 286.395873,37.2045655 286.37,37.87 C286.369229,38.6085908 286.146228,39.3298598 285.73,39.94 C285.279948,40.6162493 284.634671,41.1394475 283.88,41.44 C283.014258,41.8079013 282.080488,41.988521 281.14,41.97 C279.775162,42.0623339 278.418983,41.6924669 277.29,40.92 C276.371855,40.1420372 275.773543,39.0522546 275.61,37.86 L275.61,37.86 Z" id="Path" fill="#24272A"></path>
            <polygon id="Path" fill="#24272A" points="290.01 41.73 290.01 23.82 292.21 23.82 292.21 34.03 297.42 28.75 300.26 28.75 295.26 33.57 300.72 41.73 298.01 41.73 293.72 35.09 292.17 36.59 292.17 41.73"></polygon>
            <path d="M303.53,26.35 L303.53,23.82 L305.72,23.82 L305.72,26.35 L303.53,26.35 Z M303.53,41.73 L303.53,28.73 L305.72,28.73 L305.72,41.73 L303.53,41.73 Z" id="Shape" fill="#24272A"></path>
            <path d="M180.12,63.69 L180.12,51.75 L184.23,51.75 C184.943972,51.7327405 185.657804,51.7897131 186.36,51.92 C187.003874,52.0621383 187.604098,52.3571056 188.11,52.78 C188.744895,53.3136548 189.230682,54.0027134 189.52,54.78 C189.850832,55.6894857 190.010192,56.6524223 189.99,57.62 C190.006733,58.4349445 189.898821,59.2476601 189.67,60.03 C189.497463,60.6505747 189.223793,61.238458 188.86,61.77 C188.280306,62.6449144 187.384324,63.26135 186.36,63.49 C185.730419,63.6339209 185.085727,63.7010763 184.44,63.69 L180.12,63.69 Z M181.7,62.29 L184.25,62.29 C184.874109,62.3075837 185.49742,62.2334603 186.1,62.07 C186.499829,61.9488963 186.866102,61.7366634 187.17,61.45 C187.577563,61.0225464 187.878996,60.5053157 188.05,59.94 C188.274376,59.1911382 188.379,58.4115226 188.36,57.63 C188.416667,56.6328151 188.206083,55.6385817 187.75,54.75 C187.419093,54.1440333 186.8893,53.6707512 186.25,53.41 C185.602525,53.212956 184.926056,53.1283974 184.25,53.16 L181.74,53.16 L181.7,62.29 Z" id="Shape" fill="#24272A"></path>
            <path d="M192.17,63.69 L192.17,51.75 L196.28,51.75 C196.993972,51.7327405 197.707804,51.7897131 198.41,51.92 C199.053101,52.0643381 199.652829,52.3590615 200.16,52.78 C200.794895,53.3136548 201.280682,54.0027134 201.57,54.78 C201.89603,55.6907384 202.055242,56.6527835 202.04,57.62 C202.051192,58.4346259 201.943388,59.2465216 201.72,60.03 C201.547463,60.6505747 201.273793,61.238458 200.91,61.77 C200.614693,62.1927224 200.245426,62.5586011 199.82,62.85 C199.385381,63.1382872 198.900204,63.3418579 198.39,63.45 C197.763952,63.5947866 197.122461,63.6619584 196.48,63.65 L192.17,63.69 Z M193.75,62.29 L196.3,62.29 C196.924077,62.3068661 197.547283,62.232755 198.15,62.07 C198.548831,61.946607 198.914613,61.7346591 199.22,61.45 C199.627563,61.0225464 199.928996,60.5053157 200.1,59.94 C200.324376,59.1911382 200.429,58.4115226 200.41,57.63 C200.464075,56.6318708 200.25,55.63746 199.79,54.75 C199.461605,54.1457532 198.935576,53.6726797 198.3,53.41 C197.6522,53.2144859 196.975994,53.1299602 196.3,53.16 L193.79,53.16 L193.75,62.29 Z" id="Shape" fill="#24272A"></path>
            <path d="M203.68,59.86 L205.17,59.73 C205.21164,60.2524997 205.379812,60.7570163 205.66,61.2 C205.965198,61.6160816 206.380928,61.938272 206.86,62.13 C207.44022,62.3686661 208.062659,62.4877118 208.69,62.48 C209.23553,62.4909101 209.77826,62.3993243 210.29,62.21 C210.688972,62.067266 211.036872,61.8098204 211.29,61.47 C211.508536,61.1822286 211.627838,60.8313386 211.63,60.47 C211.640071,60.1083698 211.523329,59.7546081 211.3,59.47 C211.015235,59.1418562 210.644736,58.8994733 210.23,58.77 C209.531047,58.5354326 208.820028,58.3384836 208.1,58.18 C207.308487,58.0185349 206.537169,57.7703717 205.8,57.44 C205.283487,57.1884819 204.842095,56.8057121 204.52,56.33 C204.240209,55.8837985 204.094433,55.3666379 204.1,54.84 C204.099614,54.2372184 204.280819,53.6482994 204.62,53.15 C204.985389,52.6082038 205.509294,52.1925727 206.12,51.96 C206.831179,51.6729886 207.593267,51.5334992 208.36,51.55 C209.161062,51.5335049 209.957136,51.679792 210.7,51.98 C211.335807,52.2319747 211.879901,52.6714349 212.26,53.24 C212.626097,53.799741 212.827107,54.4512919 212.84,55.12 L211.33,55.23 C211.293616,54.5718177 210.9946,53.9557736 210.5,53.52 C209.895539,53.089978 209.15976,52.8848088 208.42,52.94 C207.683899,52.8807567 206.948917,53.0671395 206.33,53.47 C205.923969,53.7615973 205.682273,54.2301152 205.68,54.73 C205.665287,55.1346892 205.834374,55.5243257 206.14,55.79 C206.866808,56.2332147 207.676859,56.5225187 208.52,56.64 C209.42358,56.8210151 210.310113,57.0786115 211.17,57.41 C211.782699,57.6676859 212.31467,58.0856626 212.71,58.62 C213.040511,59.1245258 213.211271,59.7169605 213.2,60.32 C213.2,60.9599121 213.012245,61.5857614 212.66,62.12 C212.272583,62.6977062 211.72775,63.1523119 211.09,63.43 C210.366091,63.7503634 209.581557,63.9106814 208.79,63.9 C207.861125,63.9254209 206.936484,63.7656485 206.07,63.43 C205.371143,63.1329015 204.776065,62.6352632 204.36,62 C203.933657,61.366224 203.697692,60.6236275 203.68,59.86 Z" id="Path" fill="#24272A"></path>
            <path d="M219.93,63.69 L219.93,51.75 L222.36,51.75 L225.18,60.21 C225.44,61 225.63,61.58 225.75,61.98 C225.89,61.54 226.1,60.9 226.39,60.06 L229.25,51.75 L231.36,51.75 L231.36,63.69 L229.84,63.69 L229.84,53.69 L226.37,63.69 L224.94,63.69 L221.49,53.53 L221.49,63.69 L219.93,63.69 Z" id="Path" fill="#24272A"></path>
            <path d="M233.36,59.86 L234.86,59.73 C234.90164,60.2524997 235.069812,60.7570163 235.35,61.2 C235.655198,61.6160816 236.070928,61.938272 236.55,62.13 C237.129981,62.3694651 237.752585,62.4885424 238.38,62.48 C238.92553,62.4909101 239.46826,62.3993243 239.98,62.21 C240.377585,62.0646774 240.724802,61.8077368 240.98,61.47 C241.194806,61.1802593 241.313681,60.830626 241.32,60.47 C241.330071,60.1083698 241.213329,59.7546081 240.99,59.47 C240.705235,59.1418562 240.334736,58.8994733 239.92,58.77 C239.221047,58.5354326 238.510028,58.3384836 237.79,58.18 C236.995381,58.0180716 236.220798,57.769937 235.48,57.44 C234.96817,57.185499 234.530719,56.80316 234.21,56.33 C233.930209,55.8837985 233.784433,55.3666379 233.79,54.84 C233.786662,54.2382673 233.964357,53.6494366 234.3,53.15 C234.670068,52.6125552 235.192467,52.1981186 235.8,51.96 C236.496142,51.6813564 237.240205,51.5420568 237.99,51.55 C238.794371,51.5327037 239.593872,51.6789953 240.34,51.98 C240.975807,52.2319747 241.519901,52.6714349 241.9,53.24 C242.266097,53.799741 242.467107,54.4512919 242.48,55.12 L240.97,55.23 C240.933616,54.5718177 240.6346,53.9557736 240.14,53.52 C239.535539,53.089978 238.79976,52.8848088 238.06,52.94 C237.323899,52.8807567 236.588917,53.0671395 235.97,53.47 C235.56145,53.7605377 235.316214,54.2287147 235.31,54.73 C235.299221,55.1360478 235.471844,55.5253668 235.78,55.79 C236.506808,56.2332147 237.316859,56.5225187 238.16,56.64 C239.060804,56.8190541 239.944183,57.0767063 240.8,57.41 C241.423133,57.6591449 241.96369,58.078423 242.36,58.62 C242.698133,59.121478 242.87279,59.7153094 242.86,60.32 C242.86,60.9599121 242.672245,61.5857614 242.32,62.12 C241.932583,62.6977062 241.38775,63.1523119 240.75,63.43 C240.026091,63.7503634 239.241557,63.9106814 238.45,63.9 C237.521125,63.9254209 236.596484,63.7656485 235.73,63.43 C235.027464,63.1345784 234.428724,62.6367888 234.01,62 C233.594259,61.3629827 233.368778,60.6206274 233.36,59.86 L233.36,59.86 Z" id="Path" fill="#24272A"></path>
            <path d="M245,63.69 L245,51.75 L249.11,51.75 C249.823972,51.7327405 250.537804,51.7897131 251.24,51.92 C251.883874,52.0621383 252.484098,52.3571056 252.99,52.78 C253.624895,53.3136548 254.110682,54.0027134 254.4,54.78 C254.730832,55.6894857 254.890192,56.6524223 254.87,57.62 C254.886733,58.4349445 254.778821,59.2476601 254.55,60.03 C254.377463,60.6505747 254.103793,61.238458 253.74,61.77 C253.150518,62.631952 252.251584,63.2336288 251.23,63.45 C250.600419,63.5939209 249.955727,63.6610763 249.31,63.65 L245,63.69 Z M246.58,62.29 L249.13,62.29 C249.754109,62.3075837 250.37742,62.2334603 250.98,62.07 C251.379829,61.9488963 251.746102,61.7366634 252.05,61.45 C252.457563,61.0225464 252.758996,60.5053157 252.93,59.94 C253.154376,59.1911382 253.259,58.4115226 253.24,57.63 C253.296667,56.6328151 253.086083,55.6385817 252.63,54.75 C252.299093,54.1440333 251.7693,53.6707512 251.13,53.41 C250.482525,53.212956 249.806056,53.1283974 249.13,53.16 L246.62,53.16 L246.58,62.29 Z" id="Shape" fill="#24272A"></path>
        </g>
    </g>
</svg>